<svg width="1253" height="1172" viewBox="0 0 1253 1172" fill="none" xmlns="http://www.w3.org/2000/svg">
<path d="M522.718 679.278H211.69C171.383 679.278 138.693 646.599 138.693 606.305V581.558C138.693 541.265 171.383 508.586 211.69 508.586H449.721C490.028 508.586 522.718 541.265 522.718 581.558V679.278Z" stroke="white" stroke-width="2" stroke-miterlimit="10"/>
<path d="M847.394 1124.09C934.989 1093.32 1019.41 1040.65 1074.95 963.553C1142.87 869.641 1136.84 763.037 1150.8 653.262C1156.52 608.526 1186.35 582.827 1204.12 543.486C1241.57 460.043 1228.24 334.404 1149.54 277.612C1100.98 242.713 1054.01 238.905 1027.66 177.989C1013.06 144.358 1004.81 107.555 982.278 78.6833C949.589 36.8035 894.365 20.3054 842.316 12.3736C781.379 2.85545 722.03 4.75908 661.094 3.17272C596.032 1.26909 530.018 2.85545 466.86 20.3054C380.851 43.4662 286.59 104.7 271.674 197.977C265.326 237.953 273.578 280.785 258.344 318.223C235.493 374.697 174.557 394.051 128.855 427.364C79.9788 463.216 48.2412 519.373 34.2766 577.434C10.4734 676.74 27.9291 786.833 74.266 876.938C123.777 973.388 204.073 1055.56 301.19 1103.79C377.36 1141.54 482.729 1152.65 568.738 1158.04C663.316 1164.07 759.163 1155.5 847.394 1124.09Z" fill="#ADDFFF"/>
<path d="M1071.46 736.704C1070.83 594.884 1031.79 458.774 916.264 367.4C773.763 254.769 574.768 256.038 429.41 361.372C334.197 430.22 267.548 533.65 230.098 645.013C192.647 756.375 183.126 875.351 186.935 992.742L1053.37 995.597C1056.86 955.938 1060.67 915.962 1064.16 876.303C1068.29 829.982 1071.46 783.343 1071.46 736.704Z" fill="#69A4C9"/>
<path opacity="0.75" d="M570.324 663.414H259.296C218.989 663.414 186.299 630.735 186.299 590.442V565.695C186.299 525.401 218.989 492.722 259.296 492.722H497.328C537.634 492.722 570.324 525.401 570.324 565.695V663.414Z" stroke="white" stroke-miterlimit="10"/>
<path opacity="0.75" d="M884.209 381.677H455.434C402.115 381.677 358.635 338.528 358.635 284.91V251.913C358.635 198.612 401.798 155.146 455.434 155.146H787.727C841.046 155.146 884.527 198.295 884.527 251.913V381.677H884.209Z" stroke="white" stroke-miterlimit="10"/>
<path d="M334.197 969.898C333.245 968.947 331.658 967.995 330.389 967.043C325.945 963.553 324.993 957.207 324.358 951.497C318.646 881.697 329.119 811.263 325.628 741.463C324.993 724.648 311.346 732.897 300.238 735.118C298.651 735.435 276.752 739.559 277.069 737.021C275.165 757.009 272.626 778.266 259.296 793.178C250.092 803.648 237.08 809.676 225.655 817.291C182.491 846.48 157.419 902.637 151.389 953.4C151.389 952.131 151.071 951.179 151.071 949.91C150.119 939.757 149.484 929.605 149.167 919.452C148.215 898.195 147.897 876.938 148.215 855.681C148.532 839.817 150.436 822.367 140.915 808.724C132.663 796.985 123.777 796.034 112.034 795.082C108.86 788.736 109.495 776.363 109.495 770.652C109.495 761.451 111.082 751.298 117.747 744.318C128.537 732.897 145.358 739.877 159.323 736.387C190.426 728.455 179.318 688.796 177.413 665.952C176.144 651.992 153.928 651.675 155.197 665.952C156.149 677.374 158.371 689.43 158.371 700.852C158.371 708.149 158.371 712.909 150.754 715.447C147.58 716.399 143.137 715.447 139.963 715.447C123.777 715.447 109.812 718.937 99.3389 731.945C88.2308 746.222 86.3265 764.624 88.2308 782.074C89.5003 795.399 90.135 813.801 106.321 816.656C121.238 819.194 125.998 822.367 126.316 838.231C126.633 849.018 125.681 859.805 125.681 870.592C125.681 895.022 126.316 919.452 128.22 943.565C129.172 957.525 126.951 982.589 138.694 993.059C144.724 998.135 151.706 998.453 157.419 995.597C175.826 996.549 219.624 994.011 224.385 994.011H280.878C290.399 994.011 306.903 997.184 316.107 992.742C320.867 990.204 329.754 985.445 333.245 981.32C336.419 978.465 337.371 973.071 334.197 969.898Z" fill="#3B1C99"/>
<path d="M326.897 761.768C326.897 756.057 326.897 750.346 326.58 744.636C326.58 743.684 326.262 742.415 326.262 741.463C325.945 740.194 325.628 739.242 325.31 737.973C321.184 730.041 306.585 737.021 300.872 739.559C294.525 742.732 288.812 746.856 283.099 750.981C279.926 753.519 276.117 756.375 274.53 760.182C272.626 764.306 273.895 770.652 274.213 775.094C274.53 778.266 275.165 781.756 277.069 784.295C278.973 786.833 282.782 788.419 285.638 786.515C286.273 790.005 286.908 793.495 288.495 796.668C289.764 799.206 291.986 800.793 294.842 801.427C296.747 802.062 296.429 801.744 297.064 803.648C297.381 805.234 298.016 806.504 298.651 807.773V808.09C299.286 809.042 299.603 809.994 300.555 810.628C300.872 810.945 301.507 811.263 302.142 811.58C303.094 812.214 304.364 812.532 305.633 812.849C308.807 813.166 312.298 812.214 313.885 809.359C315.789 806.186 315.472 802.696 315.154 799.206C317.693 799.206 319.915 797.937 320.867 795.082C322.137 792.544 321.819 789.054 321.819 786.198C321.819 782.708 321.819 779.535 321.502 776.045C328.167 776.68 326.58 766.527 326.897 761.768Z" fill="#8054F6"/>
<path d="M253.584 875.351C264.692 882.014 272.309 895.657 270.722 908.982C269.453 922.625 258.344 933.729 248.506 941.978C238.032 950.862 226.289 958.794 219.625 970.85C226.607 969.898 233.589 969.581 240.254 969.264C246.284 968.946 252.949 969.581 256.44 974.34C259.931 979.416 258.027 986.396 258.979 992.424C259.614 992.742 260.566 992.742 261.201 992.107C261.518 993.694 261.518 993.694 263.105 993.694C268.5 993.376 273.261 989.252 275.8 984.175C278.339 979.099 279.291 973.705 279.926 967.995C282.148 948.324 283.417 928.336 282.148 908.348C281.83 902.002 280.878 895.657 277.704 890.263C272.626 881.38 264.057 874.717 253.584 875.351Z" fill="url(#paint0_linear)"/>
<path d="M225.654 691.017C225.337 690.065 225.02 689.113 224.702 688.161C224.702 688.479 227.241 689.43 227.876 689.748C229.145 690.382 230.098 691.017 231.367 691.651C233.589 692.92 235.81 694.189 238.032 695.459C240.254 696.728 242.475 697.997 244.697 699.583C245.649 700.218 246.284 700.852 247.236 700.535C248.823 700.218 250.41 699.266 251.996 698.631C253.901 697.997 255.805 697.045 257.709 696.41C261.518 694.824 265.326 693.238 269.135 691.969C276.752 689.113 284.369 685.94 291.668 682.768C294.525 681.499 301.19 679.912 302.142 676.74C302.459 675.471 302.459 674.519 302.459 673.25C302.777 667.221 304.046 655.8 304.046 655.8C304.046 655.8 308.489 659.607 309.442 660.559C311.028 662.462 312.615 664.683 314.202 666.587C317.376 670.711 319.915 674.836 322.454 679.595C327.849 689.113 332.293 698.949 335.784 709.101C338.64 717.35 340.227 725.599 334.832 732.897C329.754 739.877 321.502 744.001 314.202 747.808C298.968 755.74 282.782 764.306 265.644 765.893C261.2 766.21 256.757 766.21 252.949 764.306C249.14 762.403 246.284 758.596 244.062 754.471C233.906 734.483 231.684 712.274 225.654 691.017Z" fill="#3B1C99"/>
<path d="M310.394 734.8C305.316 733.214 300.238 732.897 295.16 731.31C295.477 730.676 295.794 730.358 296.112 729.724C296.747 728.455 297.699 727.186 298.333 725.599C298.968 724.648 298.333 723.696 297.381 723.378C295.794 722.744 292.938 724.33 291.351 724.965C288.812 725.917 286.591 726.868 284.369 728.138C283.099 728.772 283.417 730.676 284.686 730.993C286.908 731.627 288.812 732.262 291.034 732.897C288.812 738.29 286.908 743.684 285.321 749.395C284.686 751.298 287.86 752.25 288.495 750.347C290.082 744.953 291.669 739.559 293.89 734.483C298.968 736.069 304.364 736.387 309.442 737.973C311.663 738.608 312.298 735.435 310.394 734.8Z" fill="#19034D"/>
<path d="M266.913 721.475C266.279 721.158 265.326 721.158 265.009 721.475C264.692 721.475 264.057 721.475 263.739 722.109C263.422 722.427 263.105 723.061 263.105 723.378C263.105 723.696 262.787 724.013 262.787 724.013C262.787 724.648 262.787 724.965 263.105 725.282C263.422 725.599 263.422 726.234 264.057 726.551C265.326 727.82 267.548 727.186 268.5 725.599C269.452 724.013 268.818 722.109 266.913 721.475Z" fill="#19034D"/>
<path d="M314.519 702.439C313.885 702.121 312.933 702.121 312.615 702.439C312.298 702.439 311.663 702.439 311.346 703.073C311.028 703.39 310.711 704.025 310.711 704.342C310.711 704.659 310.394 704.977 310.394 704.977C310.394 705.611 310.394 705.929 310.711 706.246C311.028 706.563 311.028 707.198 311.663 707.515C312.933 708.784 315.154 708.149 316.106 706.563C317.058 704.977 316.424 703.073 314.519 702.439Z" fill="#19034D"/>
<path opacity="0.75" d="M1026.08 557.128H800.422V479.714C800.422 436.883 835.016 402.3 877.862 402.3H1026.08C1068.92 402.3 1103.52 436.883 1103.52 479.714C1103.52 522.546 1068.6 557.128 1026.08 557.128Z" stroke="white" stroke-miterlimit="10"/>
<path d="M396.72 908.348C390.69 928.97 385.612 953.083 397.672 970.85C412.271 992.107 446.23 992.107 467.495 976.878C488.759 961.966 500.184 936.902 510.023 912.789C526.526 872.179 541.126 830.616 546.839 787.15C550.33 761.768 547.156 730.358 524.305 719.254C488.759 702.121 458.608 729.407 447.182 759.547C428.457 808.407 411.319 857.901 396.72 908.348Z" fill="#FF735F"/>
<path d="M504.31 646.599C495.106 656.434 487.172 666.904 479.872 678.009C470.033 693.555 463.051 710.053 455.434 726.868C452.578 732.579 429.727 783.343 434.805 786.833C463.686 807.455 492.25 830.299 525.257 842.99C526.526 843.307 520.179 867.737 519.544 869.958C517.322 878.841 515.101 888.042 513.514 896.926C510.023 915.01 507.166 933.412 503.992 951.497C502.088 961.649 500.501 971.802 498.914 981.955C498.28 986.396 642.368 996.232 655.381 996.232C693.466 996.866 753.45 1007.65 776.618 968.629C782.014 959.428 784.87 948.958 787.409 938.488C801.691 877.255 807.721 814.118 806.452 751.298C806.134 736.387 805.182 721.792 801.691 707.515C796.613 686.575 785.505 667.856 774.079 650.089C763.606 633.591 747.102 624.707 729.647 616.141C677.28 591.076 613.805 582.827 560.803 606.305C538.904 615.824 520.179 629.783 504.31 646.599Z" fill="#F5BA00"/>
<path d="M743.929 795.082C742.342 798.254 741.073 801.744 739.486 804.917C734.09 817.608 720.126 839.817 720.126 853.777C713.778 874.082 710.605 895.974 714.413 916.914C716 925.163 718.539 933.412 721.395 941.661C724.886 951.814 728.695 961.966 735.042 970.85C740.755 978.465 754.72 990.838 765.511 986.714C776.619 982.272 785.188 961.966 789.314 951.814C814.704 892.167 824.86 826.492 830.89 762.086C831.207 757.644 831.842 752.885 830.89 748.443C829.62 741.78 825.177 736.387 821.051 730.993C815.339 724.013 808.991 716.716 800.105 715.129C791.853 713.543 782.966 717.985 777.253 724.33C771.541 730.676 768.05 738.607 764.558 746.539C757.894 763.037 750.911 778.901 743.929 795.082Z" fill="#FF735F"/>
<path d="M789.949 788.419C785.188 787.15 716.635 770.335 716.635 778.901C717.27 741.78 719.174 704.659 722.665 667.539C723.934 655.8 725.204 643.743 729.647 632.956C734.09 621.852 742.342 612.016 753.133 607.892C761.385 604.719 770.271 605.036 778.84 606.94C805.817 612.651 828.351 634.86 835.016 661.511C837.872 672.932 837.872 684.989 837.872 696.728C837.555 731.628 835.016 766.527 832.794 801.427C818.512 801.11 804.231 792.226 789.949 788.419Z" fill="#F5BA00"/>
<path d="M824.859 599.96C825.812 603.133 826.446 606.305 826.764 609.795C828.351 632.004 813.434 650.723 798.835 665.635C793.122 671.663 784.87 675.47 779.792 681.816C773.762 688.796 774.079 700.218 763.923 703.39C759.48 704.659 754.402 703.073 751.228 699.583C747.42 695.459 747.42 690.7 749.324 685.623C751.546 679.595 753.45 671.981 757.258 666.904C760.115 662.78 765.828 659.924 770.271 657.386C778.84 652.31 785.822 642.474 787.092 632.639C789.631 613.92 787.092 592.663 793.439 574.895C794.709 571.723 795.978 568.867 798.517 566.646C801.056 564.426 804.547 563.156 807.721 564.426C812.164 566.012 814.069 571.406 815.656 575.847C818.195 583.779 822.32 591.711 824.859 599.96Z" fill="#DB6352"/>
<path d="M800.422 835.692C802.643 875.669 802.008 916.597 791.218 955.621C788.044 967.36 782.649 983.858 771.223 990.204C758.528 997.501 738.533 991.473 726.79 984.81C718.856 980.368 711.556 974.974 706.478 967.36C698.861 955.621 698.227 940.392 699.179 926.432C701.718 888.359 710.922 853.142 718.539 816.022C726.473 775.728 735.994 735.752 746.785 695.776C751.228 678.96 757.258 666.27 771.54 655.482C781.696 647.868 798.517 637.715 799.469 657.703C802.326 716.716 797.248 776.045 800.422 835.692Z" fill="#DB6352"/>
<path d="M640.147 632.639C638.878 634.86 637.926 637.081 637.291 639.302C636.656 642.474 636.973 645.647 637.291 648.502C640.147 671.663 644.908 694.507 669.981 701.804C686.484 706.563 706.796 704.977 722.03 696.41C726.791 693.555 731.551 690.7 735.36 686.575C739.168 682.45 742.025 677.374 742.025 671.663C758.846 675.47 775.984 658.338 784.553 646.282C804.548 618.362 811.213 583.145 808.039 549.514C807.404 541.265 806.135 532.381 801.057 525.718C797.566 520.959 792.488 517.787 787.727 514.614C764.876 500.019 740.438 499.068 715.683 510.807C693.149 521.277 677.28 543.803 666.489 565.377C662.046 574.578 661.411 586.635 657.603 596.153C653.477 607.574 648.082 618.679 641.734 629.149C641.417 630.735 640.782 631.687 640.147 632.639Z" fill="#FF735F"/>
<path d="M671.884 515.249C676.962 503.827 684.579 493.04 694.101 486.694C711.239 474.638 735.994 476.859 755.354 481.301C766.462 483.839 777.57 488.598 789.313 488.598C799.787 488.598 810.578 478.128 820.734 481.618C825.177 483.204 828.668 487.011 829.62 491.77C831.207 499.385 826.446 506.682 822.955 513.662C820.099 519.056 817.56 524.767 814.069 529.843C809.308 536.188 801.374 541.582 793.439 542.534C790.583 542.851 788.044 542.534 785.187 542.217C768.684 540.63 755.037 535.871 742.342 548.879C733.773 557.763 729.647 569.819 723.299 579.972C721.712 582.51 720.125 585.048 717.586 586.635C714.413 588.538 709.969 588.538 706.478 589.49C690.292 593.297 679.501 620.583 662.363 614.554C647.764 609.478 650.937 596.153 656.65 585.683C663.95 572.357 662.363 556.494 664.585 541.582C665.219 533.016 667.758 523.815 671.884 515.249Z" fill="#19034D"/>
<path d="M675.693 578.068C671.885 583.145 669.98 589.173 668.711 595.201C667.759 600.594 667.124 605.988 668.711 611.064C670.298 616.141 674.424 620.9 679.819 621.852C683.945 622.486 688.388 620.9 691.562 618.044C699.179 611.382 708.066 591.076 705.844 580.606C702.67 566.012 683.31 568.55 675.693 578.068Z" fill="#FF735F"/>
<path d="M690.927 583.779C686.802 585.365 683.628 588.855 681.406 592.98C679.502 597.104 678.55 601.546 677.915 605.988" stroke="#19034D" stroke-miterlimit="10"/>
<path d="M798.517 586.635C798.835 588.538 797.883 590.759 795.661 591.076C793.757 591.394 791.535 590.442 791.218 588.221C790.9 586.317 791.852 584.096 794.074 583.779C795.978 583.462 798.2 584.731 798.517 586.635Z" fill="#19034D"/>
<path d="M756.941 590.124C757.259 592.028 755.989 593.932 753.767 594.249C751.863 594.566 749.959 593.297 749.642 591.076C749.324 589.173 750.594 587.269 752.815 586.952C754.72 586.634 756.624 587.904 756.941 590.124Z" fill="#19034D"/>
<path d="M702.987 895.022C701.401 905.492 700.131 915.645 699.496 926.115C698.544 940.392 698.861 955.304 706.796 967.043C711.874 974.657 719.174 980.051 727.108 984.493C738.851 991.155 758.846 997.184 771.541 989.886C782.649 983.541 788.044 966.726 791.535 955.304C796.931 935.633 799.787 915.328 801.056 895.022H702.987Z" fill="url(#paint1_linear)"/>
<path d="M589.049 833.472C583.337 816.974 577.624 800.475 571.594 783.977C571.911 785.246 568.42 790.64 567.785 791.909C566.516 794.765 565.246 797.62 563.977 800.475C561.438 806.504 558.581 812.214 556.042 817.925C550.964 829.03 545.886 840.452 539.539 850.922C534.461 849.335 529.7 846.797 525.574 843.307C523.987 853.46 520.814 862.661 518.592 872.813C517.64 877.89 516.688 883.283 515.736 888.36C515.101 890.898 514.783 893.753 514.149 896.291C513.831 897.243 513.514 902.954 512.562 903.589C539.539 887.725 564.294 868.054 585.876 845.528C587.463 843.624 589.367 841.721 589.684 839.182C590.319 837.279 589.684 835.375 589.049 833.472Z" fill="url(#paint2_linear)"/>
<path d="M801.057 566.646C795.979 566.012 790.901 567.281 786.457 570.136C784.553 571.406 783.283 573.944 784.553 576.165C785.505 578.068 788.679 579.337 790.583 578.068C793.757 575.847 796.931 575.213 800.422 575.847C802.961 576.165 804.865 573.944 805.182 571.723C805.5 568.55 803.596 566.964 801.057 566.646Z" fill="#19034D"/>
<path d="M765.193 573.626C758.845 570.771 752.18 572.04 745.833 573.626C741.072 574.896 742.024 582.827 747.102 581.558C752.18 580.289 757.258 578.703 762.019 580.924C766.78 583.145 769.636 575.53 765.193 573.626Z" fill="#19034D"/>
<path d="M709.017 658.338C708.7 666.587 708.383 674.836 708.065 683.085C708.065 687.527 707.748 691.651 707.748 696.093C707.748 696.728 707.43 698.314 707.43 699.9C712.508 698.631 717.586 697.679 722.347 695.776C729.012 692.603 735.677 688.479 739.168 681.499C740.438 678.961 741.39 676.105 742.024 673.25C730.916 670.711 717.586 666.27 709.017 658.338Z" fill="url(#paint3_linear)"/>
<path d="M621.739 994.328C664.585 999.404 712.191 1005.12 753.45 992.742C746.785 983.224 740.121 973.705 731.551 965.456C722.982 957.525 712.509 951.179 700.766 949.91C694.736 949.276 688.388 949.593 682.358 950.545C671.567 951.814 657.92 957.525 647.129 956.573C638.243 955.938 626.5 948.006 617.931 944.834C560.486 921.99 492.25 891.215 429.092 907.713C397.355 915.962 377.995 942.613 400.211 972.436C412.589 989.252 432.266 986.079 451.626 986.396C503.676 987.348 556.043 986.714 607.775 992.742C612.535 993.376 617.296 994.011 621.739 994.328Z" fill="#FF735F"/>
<path d="M751.546 638.984L748.372 638.032C750.276 631.37 752.498 626.293 755.672 622.169C759.798 617.093 765.193 613.603 770.906 612.968C772.81 612.651 774.714 612.968 776.301 613.285C779.475 614.237 782.649 617.093 784.236 620.9L781.379 622.169C780.11 619.313 777.888 617.093 775.349 616.141C774.08 615.823 772.81 615.506 771.223 615.823C766.462 616.458 761.702 619.313 758.211 623.755C755.354 627.88 753.133 632.639 751.546 638.984Z" fill="#19034D"/>
<path d="M514.149 888.677C513.831 888.042 513.197 887.09 512.879 886.456C510.023 881.697 507.166 876.621 504.31 871.544C500.184 875.351 496.376 879.159 491.615 882.649C485.585 886.773 480.189 891.85 475.111 896.926C471.938 900.099 469.081 903.588 466.225 906.761C466.86 908.665 467.812 910.251 468.447 912.155C468.764 913.107 469.081 914.058 469.716 915.01C471.62 914.376 473.842 913.741 475.746 913.107C485.902 910.251 499.549 906.127 510.658 907.713C511.292 901.368 513.831 895.657 514.149 889.311C514.149 889.311 514.149 888.994 514.149 888.677Z" fill="url(#paint4_linear)"/>
<path d="M764.241 651.675C762.337 651.675 759.798 652.944 758.846 654.531C758.528 655.482 758.528 656.434 759.163 657.069C759.163 657.703 759.798 658.338 760.433 658.338C762.654 658.972 764.558 657.703 766.145 656.117C767.415 654.213 766.78 651.675 764.241 651.675Z" fill="#DB6352"/>
<path d="M767.414 564.108C765.193 563.156 762.654 562.522 760.432 562.205C758.528 561.887 758.528 565.06 760.432 565.377C762.654 565.695 764.558 566.329 766.78 566.964C768.684 567.916 769.319 565.06 767.414 564.108Z" fill="#DB6352"/>
<path d="M787.092 559.666C785.505 560.301 783.918 560.618 782.014 561.253C780.11 561.887 780.744 565.06 782.966 564.426C784.553 563.791 786.14 563.474 788.044 562.839C789.948 561.887 789.313 559.032 787.092 559.666Z" fill="#DB6352"/>
<path d="M852.472 343.605H423.697C370.377 343.605 326.897 300.456 326.897 246.837V213.841C326.897 160.539 370.06 117.073 423.697 117.073H755.989C809.308 117.073 852.789 160.222 852.789 213.841V343.605H852.472Z" fill="#8054F6"/>
<path d="M518.275 251.913H508.436V269.046H484.95V251.913H449.721V234.463L486.854 180.845H508.753V234.146H518.592V251.913H518.275ZM485.268 234.146V223.994C485.268 222.09 485.268 219.552 485.585 216.062C485.585 212.889 485.902 210.985 485.902 210.985H485.268C483.998 214.158 482.411 217.014 480.507 219.552L470.668 234.146H485.268Z" fill="white"/>
<path d="M612.852 224.945C612.852 240.492 610.313 251.913 604.918 259.211C599.84 266.508 591.588 269.998 581.115 269.998C570.641 269.998 562.707 266.191 557.312 258.576C551.916 250.962 549.377 239.857 549.377 224.945C549.377 209.399 551.916 197.977 557.312 190.68C562.39 183.383 570.641 179.576 581.115 179.576C591.588 179.576 599.523 183.383 604.918 190.997C609.996 198.612 612.852 210.034 612.852 224.945ZM572.863 224.945C572.863 234.781 573.498 241.761 574.767 245.568C576.037 249.375 577.941 251.279 581.115 251.279C583.971 251.279 586.193 249.375 587.462 245.568C588.732 241.761 589.367 235.098 589.367 225.263C589.367 215.427 588.732 208.764 587.462 204.64C586.193 200.833 584.289 198.929 581.115 198.929C578.258 198.929 576.037 200.833 574.767 204.64C573.498 208.13 572.863 214.793 572.863 224.945Z" fill="white"/>
<path d="M712.191 251.913H702.353V269.046H678.867V251.913H643.638V234.463L680.454 180.845H702.353V234.146H712.191V251.913ZM678.867 234.146V223.994C678.867 222.09 678.867 219.552 679.184 216.062C679.184 212.889 679.502 210.985 679.502 210.985H678.867C677.597 214.158 676.01 217.014 674.106 219.552L664.268 234.146H678.867Z" fill="white"/>
<path d="M608.409 568.233H297.381C257.074 568.233 224.385 535.554 224.385 495.26V470.513C224.385 430.22 257.074 397.541 297.381 397.541H535.413C575.72 397.541 608.409 430.22 608.409 470.513V568.233Z" fill="white"/>
<path d="M345.305 501.606C339.909 501.606 335.784 500.019 332.927 497.164C330.071 494.309 328.484 490.184 328.484 484.79C328.484 479.397 329.753 474.955 332.61 472.1C335.466 469.244 339.275 467.658 344.035 467.658C348.796 467.658 352.287 468.927 354.826 471.465C357.365 474.003 358.635 477.811 358.635 482.252V486.694H337.37C337.37 489.232 338.323 491.136 339.592 492.722C340.862 493.991 343.083 494.943 345.622 494.943C347.526 494.943 349.431 494.626 351.335 494.309C353.239 493.991 354.826 493.357 356.73 492.405V499.385C355.143 500.019 353.557 500.654 351.652 500.971C349.748 501.289 347.844 501.606 345.305 501.606ZM344.035 474.003C342.131 474.003 340.544 474.638 339.592 475.907C338.64 477.176 338.005 478.762 337.688 480.983H350.383C350.383 478.762 349.748 477.176 348.796 475.907C347.209 474.638 345.94 474.003 344.035 474.003Z" fill="#FF735F"/>
<path d="M390.055 467.658C391.324 467.658 392.276 467.658 393.229 467.975L392.594 476.224C391.959 475.907 391.007 475.907 390.055 475.907C387.198 475.907 384.977 476.541 383.39 478.128C381.803 479.714 380.851 481.618 380.851 484.156V500.971H371.964V468.292H378.629L379.899 473.686H380.216C381.168 471.782 382.755 470.513 384.342 469.244C386.246 467.975 388.151 467.658 390.055 467.658Z" fill="#FF735F"/>
<path d="M423.379 467.658C424.649 467.658 425.601 467.658 426.553 467.975L425.918 476.224C425.284 475.907 424.331 475.907 423.379 475.907C420.523 475.907 418.301 476.541 416.714 478.128C415.127 479.714 414.175 481.618 414.175 484.156V500.971H405.289V468.292H411.954L413.223 473.686H413.541C414.493 471.782 416.08 470.513 417.667 469.244C419.571 467.975 421.158 467.658 423.379 467.658Z" fill="#FF735F"/>
<path d="M468.129 484.473C468.129 489.867 466.86 493.991 464.004 496.847C461.147 499.702 457.339 501.289 452.261 501.289C449.087 501.289 446.23 500.654 444.009 499.068C441.47 497.799 439.883 495.578 438.613 493.04C437.344 490.501 436.709 487.329 436.709 484.156C436.709 478.762 437.979 474.638 440.835 471.782C443.691 468.927 447.5 467.341 452.578 467.341C455.752 467.341 458.608 467.975 460.83 469.244C463.369 470.513 464.956 472.417 466.225 475.272C467.495 478.128 468.129 480.983 468.129 484.473ZM445.278 484.473C445.278 487.646 445.913 490.184 446.865 491.77C447.817 493.357 449.722 494.309 451.943 494.309C454.482 494.309 456.069 493.357 457.021 491.77C457.973 490.184 458.608 487.646 458.608 484.473C458.608 481.3 457.973 478.762 457.021 477.176C456.069 475.59 454.165 474.638 451.943 474.638C449.404 474.638 447.817 475.59 446.865 477.176C445.913 478.762 445.278 481.3 445.278 484.473Z" fill="#FF735F"/>
<path d="M499.867 467.658C501.137 467.658 502.089 467.658 503.041 467.975L502.406 476.224C501.771 475.907 500.819 475.907 499.867 475.907C497.011 475.907 494.789 476.541 493.202 478.128C491.615 479.714 490.663 481.618 490.663 484.156V500.971H481.777V468.292H488.441L489.711 473.686H490.028C490.98 471.782 492.567 470.513 494.154 469.244C495.741 467.975 497.645 467.658 499.867 467.658Z" fill="#FF735F"/>
<path opacity="0.49" d="M964.822 917.549L882.622 611.064C871.197 567.916 832.477 537.775 787.727 536.823C702.987 534.919 654.111 632.322 706.478 699.266C792.487 808.724 887.383 931.826 887.383 931.826L964.822 917.549Z" fill="url(#paint5_linear)"/>
<path d="M1083.84 504.461H857.549V424.192C857.549 391.195 884.526 364.227 917.533 364.227H1083.84C1116.85 364.227 1143.82 391.195 1143.82 424.192V444.497C1143.82 477.811 1116.85 504.461 1083.84 504.461Z" fill="#3B1C99"/>
<path d="M958.157 441.642C962.189 441.642 965.457 438.375 965.457 434.344C965.457 430.314 962.189 427.047 958.157 427.047C954.126 427.047 950.857 430.314 950.857 434.344C950.857 438.375 954.126 441.642 958.157 441.642Z" fill="white"/>
<path d="M1007.99 434.344C1007.99 438.469 1004.81 441.642 1000.69 441.642C996.559 441.642 993.386 438.469 993.386 434.344C993.386 430.22 996.559 427.047 1000.69 427.047C1004.81 427.047 1007.99 430.22 1007.99 434.344Z" fill="white"/>
<path d="M1042.9 441.642C1046.93 441.642 1050.2 438.375 1050.2 434.344C1050.2 430.314 1046.93 427.047 1042.9 427.047C1038.86 427.047 1035.6 430.314 1035.6 434.344C1035.6 438.375 1038.86 441.642 1042.9 441.642Z" fill="white"/>
<path d="M430.996 953.4C426.553 953.4 422.427 953.083 418.936 952.131L420.206 945.468C434.17 948.324 456.704 945.468 463.051 932.143C464.956 928.018 464.956 922.942 463.051 919.135C460.83 915.01 457.656 912.155 453.213 910.886C444.644 908.348 433.535 911.203 426.236 915.328L422.745 909.299C430.679 904.858 444.009 900.733 455.117 904.223C461.464 906.127 466.225 910.251 469.081 915.962C471.938 921.99 472.255 929.288 469.081 934.998C462.734 948.641 445.596 953.4 430.996 953.4Z" fill="#BF0A40"/>
<path d="M398.624 976.244H375.138C351.018 976.244 331.658 956.89 331.658 932.777V887.725H442.105V932.777C442.105 956.89 422.745 976.244 398.624 976.244Z" fill="#BF0A40"/>
<path d="M472.573 982.906H302.776C299.92 982.906 297.698 980.685 297.698 977.83C297.698 974.975 299.92 972.754 302.776 972.754H472.573C475.429 972.754 477.651 974.975 477.651 977.83C477.968 980.685 475.429 982.906 472.573 982.906Z" fill="white"/>
<path d="M1114.31 869.006C1115.26 862.978 1117.16 857.267 1122.24 854.729C1129.22 850.604 1138.43 854.094 1146.36 852.508C1168.9 848.383 1168.58 816.974 1168.26 799.841C1167.94 788.736 1167.63 777.949 1166.67 766.845C1166.36 763.989 1166.36 760.816 1164.77 758.278C1161.91 753.837 1155.88 752.567 1150.81 753.837C1140.97 756.692 1135.57 767.162 1133.67 777.315C1131.76 787.467 1132.71 797.937 1130.18 807.773C1129.54 809.676 1128.91 811.58 1127.95 813.166C1126.68 815.07 1125.1 816.339 1123.19 817.291C1120.34 818.56 1116.85 818.877 1113.99 817.291C1110.82 815.387 1111.45 812.849 1111.45 809.676C1111.45 806.186 1110.82 802.379 1110.5 798.572C1109.55 790.323 1108.59 782.074 1107.96 773.825C1106.37 757.644 1105.1 741.146 1103.52 724.965C1102.88 717.668 1101.93 709.736 1098.12 703.073C1081.93 674.201 1057.5 699.583 1055.27 720.523C1050.2 768.431 1074.95 813.483 1073.05 861.074C1073.05 862.978 1072.73 865.199 1072.1 867.102C1068.29 874.717 1056.23 873.13 1050.83 869.006C1042.26 862.343 1045.12 847.432 1045.12 838.865C1045.12 831.568 1042.9 823.636 1035.92 820.146C1027.98 816.339 1017.82 820.781 1013.06 828.078C1007.35 837.279 1007.99 852.825 1008.62 862.978C1009.26 870.275 1010.84 877.572 1015.29 883.918C1019.73 890.263 1026.71 895.022 1034.65 895.34C1039.41 895.657 1044.48 894.705 1047.98 897.56C1052.42 901.05 1050.83 907.079 1050.83 912.472C1051.15 922.625 1060.04 931.508 1070.19 935.95C1080.35 940.392 1092.09 941.026 1103.2 941.661C1112.72 926.432 1113.35 908.665 1113.99 891.532C1113.99 885.504 1113.04 876.938 1114.31 869.006Z" fill="#228F4E"/>
<path d="M1083.84 691.969C1095.26 771.286 1105.1 852.191 1091.14 931.191" stroke="#19034D" stroke-miterlimit="10"/>
<path d="M1073.05 691.651C1069.87 706.563 1066.7 721.475 1066.7 736.387C1066.7 765.258 1079.08 792.544 1083.84 821.098C1089.23 852.825 1085.11 885.187 1081.3 917.231" stroke="#19034D" stroke-miterlimit="10"/>
<path d="M1097.8 831.885C1111.77 829.982 1128.27 827.761 1136.84 816.973C1138.11 815.387 1139.06 813.801 1139.7 811.897C1141.92 804.283 1140.97 795.716 1140.97 788.102C1140.97 780.805 1140.97 767.796 1140.97 757.961" stroke="#19034D" stroke-miterlimit="10"/>
<path d="M1085.43 884.552C1073.05 886.456 1059.4 888.36 1048.61 882.331C1041.95 878.524 1037.5 872.179 1035.28 865.516C1033.06 858.853 1032.42 851.556 1032.42 844.576C1032.42 836.962 1033.06 829.347 1034.33 821.733" stroke="#19034D" stroke-miterlimit="10"/>
<path d="M1097.8 844.576C1113.67 842.355 1129.22 838.231 1143.82 832.52C1147 831.251 1150.17 829.982 1152.39 827.761C1154.93 825.223 1155.88 822.05 1156.84 818.877C1159.06 811.58 1160.01 762.403 1157.47 750.664" stroke="#19034D" stroke-miterlimit="10"/>
<path d="M1039.09 915.01L1132.08 913.107L1122.56 982.272H1051.47L1039.09 915.01Z" fill="#F5BA00"/>
<path d="M1015.29 986.714H622.691C618.248 986.714 614.757 983.224 614.757 978.782V975.926C614.757 971.485 618.248 967.995 622.691 967.995H1015.29C1019.73 967.995 1023.22 971.485 1023.22 975.926V978.782C1023.22 983.224 1019.73 986.714 1015.29 986.714Z" fill="white"/>
<path d="M1024.49 986.714H675.376L705.844 786.198C706.796 779.218 712.826 774.142 719.809 774.142H1040.99C1049.24 774.142 1055.59 781.756 1054.32 790.005L1024.49 986.714Z" fill="white"/>
<path d="M881.987 882.966C891.277 882.966 898.808 875.437 898.808 866.151C898.808 856.864 891.277 849.335 881.987 849.335C872.697 849.335 865.166 856.864 865.166 866.151C865.166 875.437 872.697 882.966 881.987 882.966Z" stroke="#8054F6" stroke-width="2" stroke-miterlimit="10"/>
<path d="M899.126 758.596C896.904 749.395 895.952 739.877 895.952 730.676C895.952 721.475 897.222 714.812 903.569 707.832C907.695 703.073 913.408 697.045 918.486 693.238C932.45 682.133 937.846 661.828 930.864 645.33" stroke="white" stroke-width="2" stroke-miterlimit="10"/>
<path d="M928.325 731.628C926.42 723.696 930.864 715.764 936.259 709.736C941.654 703.708 948.637 698.949 953.397 692.603C963.553 678.643 963.236 665.635 961.332 639.619C960.062 621.217 960.38 600.595 973.392 587.904" stroke="white" stroke-width="2" stroke-miterlimit="10"/>
<path d="M1140.01 1002.26H126.633C121.238 1002.26 117.112 998.135 117.112 992.742V989.569C117.112 984.175 121.238 980.051 126.633 980.051H1140.33C1145.73 980.051 1149.85 984.175 1149.85 989.569V992.742C1149.54 998.135 1145.41 1002.26 1140.01 1002.26Z" fill="#8054F6"/>
<path d="M1243.8 403.886C1251.73 453.698 1254.9 506.999 1232.05 552.052C1219.36 577.116 1199.36 597.739 1187.94 623.755C1175.88 651.358 1171.43 679.912 1168.58 709.736" stroke="#ADDFFF" stroke-width="2" stroke-miterlimit="10"/>
<path d="M216.768 320.761C185.03 359.151 138.058 380.726 99.9734 412.77C38.0851 464.168 1.58685 544.437 3.17373 625.024" stroke="#ADDFFF" stroke-width="2" stroke-miterlimit="10"/>
<path d="M911.503 3.17273C963.236 19.3536 1007.35 58.3779 1029.57 107.872" stroke="#ADDFFF" stroke-width="2" stroke-miterlimit="10"/>
<path d="M189.473 1064.13C259.296 1125.68 350.065 1163.12 442.739 1168.83" stroke="#ADDFFF" stroke-width="2" stroke-miterlimit="10"/>
<path d="M885.796 1082.53C902.934 1074.92 919.438 1066.35 935.624 1057.15" stroke="#69A4C9" stroke-width="2" stroke-miterlimit="10"/>
<path d="M654.112 1129.17C721.713 1126.31 780.11 1123.14 853.106 1094.27" stroke="#69A4C9" stroke-width="2" stroke-miterlimit="10"/>
<defs>
<linearGradient id="paint0_linear" x1="220.098" y1="952.657" x2="323.33" y2="905.384" gradientUnits="userSpaceOnUse">
<stop stop-color="#19034D" stop-opacity="0.9148"/>
<stop offset="0.5554" stop-color="#311573" stop-opacity="0"/>
</linearGradient>
<linearGradient id="paint1_linear" x1="712.871" y1="1001.82" x2="757.959" y2="903.558" gradientUnits="userSpaceOnUse">
<stop stop-color="#201B59" stop-opacity="0.9148"/>
<stop offset="0.5554" stop-color="#FFCC00" stop-opacity="0"/>
</linearGradient>
<linearGradient id="paint2_linear" x1="522.115" y1="824.631" x2="575.784" y2="876.253" gradientUnits="userSpaceOnUse">
<stop stop-color="#201B59" stop-opacity="0.9148"/>
<stop offset="0.5554" stop-color="#FFCC00" stop-opacity="0"/>
</linearGradient>
<linearGradient id="paint3_linear" x1="733.96" y1="651.221" x2="707.562" y2="701.909" gradientUnits="userSpaceOnUse">
<stop offset="0.2654" stop-color="#201B59" stop-opacity="0.9148"/>
<stop offset="0.5554" stop-color="#FF735F" stop-opacity="0"/>
</linearGradient>
<linearGradient id="paint4_linear" x1="505.816" y1="930.019" x2="478.219" y2="873.971" gradientUnits="userSpaceOnUse">
<stop offset="0.2654" stop-color="#201B59" stop-opacity="0.9148"/>
<stop offset="0.5554" stop-color="#FF735F" stop-opacity="0"/>
</linearGradient>
<linearGradient id="paint5_linear" x1="911.879" y1="791.838" x2="675.194" y2="534.427" gradientUnits="userSpaceOnUse">
<stop offset="0.00446914" stop-color="white"/>
<stop offset="0.551" stop-color="white" stop-opacity="0.3"/>
</linearGradient>
</defs>
</svg>
