<svg width="184" height="184" viewBox="0 0 184 184" fill="none" xmlns="http://www.w3.org/2000/svg">
<g clip-path="url(#clip0)">
<path d="M181.231 114.256C168.943 163.543 119.024 193.537 69.7325 181.247C20.4608 168.959 -9.53408 119.037 2.75942 69.7542C15.0414 20.4624 64.96 -9.5354 114.238 2.75236C163.526 15.0401 193.518 64.9674 181.231 114.256Z" fill="#F7931A"/>
<path d="M132.564 78.8926C134.396 66.6508 125.075 60.0699 112.33 55.6798L116.464 39.0968L106.37 36.5812L102.345 52.7272C99.6915 52.0659 96.966 51.442 94.2578 50.8239L98.3115 34.5715L88.2231 32.0559L84.086 48.6332C81.8895 48.1329 79.7333 47.6384 77.6403 47.118L77.6518 47.0663L63.731 43.5904L61.0458 54.3717C61.0458 54.3717 68.5351 56.088 68.377 56.1944C72.4653 57.215 73.2041 59.9204 73.0805 62.0652L68.3713 80.9568C68.653 81.0287 69.0181 81.1322 69.4206 81.2932C69.0843 81.2098 68.7249 81.1178 68.354 81.0287L61.753 107.493C61.2528 108.735 59.9849 110.598 57.1271 109.891C57.2278 110.037 49.7901 108.059 49.7901 108.059L44.779 119.614L57.9149 122.889C60.3586 123.501 62.7535 124.142 65.111 124.746L60.9336 141.519L71.0163 144.034L75.1534 127.44C77.9076 128.187 80.5814 128.877 83.1976 129.527L79.0749 146.044L89.169 148.56L93.3464 131.818C110.559 135.076 123.502 133.762 128.95 118.194C133.34 105.659 128.732 98.4282 119.676 93.7132C126.271 92.1923 131.239 87.8539 132.564 78.8926ZM109.501 111.233C106.382 123.768 85.2763 116.992 78.4338 115.293L83.9768 93.0721C90.8193 94.7798 112.761 98.1608 109.501 111.233ZM112.623 78.7114C109.777 90.1137 92.2108 84.3205 86.5125 82.9003L91.538 62.7465C97.2363 64.1668 115.587 66.8175 112.623 78.7114Z" fill="white"/>
</g>
<defs>
<clipPath id="clip0">
<rect width="184" height="184" fill="white"/>
</clipPath>
</defs>
</svg>
