<svg width="237" height="24" viewBox="0 0 237 24" fill="none" xmlns="http://www.w3.org/2000/svg">
<path d="M12.376 23.32C10.1147 23.32 8.06667 22.8293 6.232 21.848C4.41867 20.8453 2.98933 19.4693 1.944 17.72C0.92 15.9707 0.408 13.9973 0.408 11.8C0.408 9.60267 0.930667 7.62933 1.976 5.88C3.02133 4.13067 4.45067 2.76533 6.264 1.784C8.09867 0.781332 10.1467 0.279999 12.408 0.279999C14.2427 0.279999 15.9173 0.599999 17.432 1.24C18.9467 1.88 20.2267 2.808 21.272 4.024L18.584 6.552C16.9627 4.80267 14.968 3.928 12.6 3.928C11.064 3.928 9.688 4.26933 8.472 4.952C7.256 5.61333 6.30667 6.54133 5.624 7.736C4.94133 8.93067 4.6 10.2853 4.6 11.8C4.6 13.3147 4.94133 14.6693 5.624 15.864C6.30667 17.0587 7.256 17.9973 8.472 18.68C9.688 19.3413 11.064 19.672 12.6 19.672C14.968 19.672 16.9627 18.7867 18.584 17.016L21.272 19.576C20.2267 20.792 18.936 21.72 17.4 22.36C15.8853 23 14.2107 23.32 12.376 23.32ZM43.114 23L38.538 16.44C38.346 16.4613 38.058 16.472 37.674 16.472H32.618V23H28.458V0.599998H37.674C39.6153 0.599998 41.3007 0.919999 42.73 1.56C44.1807 2.2 45.29 3.11733 46.058 4.312C46.826 5.50667 47.21 6.92533 47.21 8.568C47.21 10.2533 46.794 11.704 45.962 12.92C45.1513 14.136 43.978 15.0427 42.442 15.64L47.594 23H43.114ZM43.018 8.568C43.018 7.13867 42.5487 6.04 41.61 5.272C40.6713 4.504 39.2953 4.12 37.482 4.12H32.618V13.048H37.482C39.2953 13.048 40.6713 12.664 41.61 11.896C42.5487 11.1067 43.018 9.99733 43.018 8.568ZM64.4158 15.096V23H60.2558V15.16L51.4558 0.599998H55.9038L62.4638 11.512L69.0878 0.599998H73.1838L64.4158 15.096ZM88.0115 0.599998C89.9528 0.599998 91.6382 0.919999 93.0675 1.56C94.5182 2.2 95.6275 3.11733 96.3955 4.312C97.1635 5.50667 97.5475 6.92533 97.5475 8.568C97.5475 10.1893 97.1635 11.608 96.3955 12.824C95.6275 14.0187 94.5182 14.936 93.0675 15.576C91.6382 16.216 89.9528 16.536 88.0115 16.536H82.9555V23H78.7955V0.599998H88.0115ZM87.8195 13.016C89.6328 13.016 91.0088 12.632 91.9475 11.864C92.8862 11.096 93.3555 9.99733 93.3555 8.568C93.3555 7.13867 92.8862 6.04 91.9475 5.272C91.0088 4.504 89.6328 4.12 87.8195 4.12H82.9555V13.016H87.8195ZM108.79 4.12H101.366V0.599998H120.374V4.12H112.95V23H108.79V4.12ZM136.847 23.32C134.564 23.32 132.506 22.8293 130.671 21.848C128.836 20.8453 127.396 19.4693 126.351 17.72C125.306 15.9493 124.783 13.976 124.783 11.8C124.783 9.624 125.306 7.66133 126.351 5.912C127.396 4.14133 128.836 2.76533 130.671 1.784C132.506 0.781332 134.564 0.279999 136.847 0.279999C139.13 0.279999 141.188 0.781332 143.023 1.784C144.858 2.76533 146.298 4.13067 147.343 5.88C148.388 7.62933 148.911 9.60267 148.911 11.8C148.911 13.9973 148.388 15.9707 147.343 17.72C146.298 19.4693 144.858 20.8453 143.023 21.848C141.188 22.8293 139.13 23.32 136.847 23.32ZM136.847 19.672C138.34 19.672 139.684 19.3413 140.879 18.68C142.074 17.9973 143.012 17.0587 143.695 15.864C144.378 14.648 144.719 13.2933 144.719 11.8C144.719 10.3067 144.378 8.96267 143.695 7.768C143.012 6.552 142.074 5.61333 140.879 4.952C139.684 4.26933 138.34 3.928 136.847 3.928C135.354 3.928 134.01 4.26933 132.815 4.952C131.62 5.61333 130.682 6.552 129.999 7.768C129.316 8.96267 128.975 10.3067 128.975 11.8C128.975 13.2933 129.316 14.648 129.999 15.864C130.682 17.0587 131.62 17.9973 132.815 18.68C134.01 19.3413 135.354 19.672 136.847 19.672ZM175.88 0.599998V23H173.928L159.528 4.824V23H157.16V0.599998H159.112L173.544 18.776V0.599998H175.88ZM186.392 0.599998H188.76V23H186.392V0.599998ZM203.6 2.648H195.728V0.599998H213.84V2.648H205.968V23H203.6V2.648ZM236.663 20.952V23H220.823V0.599998H236.183V2.648H223.191V10.616H234.775V12.632H223.191V20.952H236.663Z" fill="white"/>
</svg>
