<svg width="184" height="184" viewBox="0 0 184 184" fill="none" xmlns="http://www.w3.org/2000/svg">
<g clip-path="url(#clip0)">
<path d="M92 174.042C137.311 174.042 174.043 137.311 174.043 91.9999C174.043 46.689 137.311 9.95728 92 9.95728C46.6891 9.95728 9.9574 46.689 9.9574 91.9999C9.9574 137.311 46.6891 174.042 92 174.042Z" fill="white"/>
<path d="M92 0C73.8041 0 56.0169 5.39571 40.8876 15.5048C25.7582 25.6139 13.9664 39.9823 7.00309 56.7931C0.0398313 73.6039 -1.78208 92.1021 1.76777 109.948C5.31761 127.795 14.0798 144.187 26.9462 157.054C39.8126 169.92 56.2055 178.682 74.0517 182.232C91.898 185.782 110.396 183.96 127.207 176.997C144.018 170.034 158.386 158.242 168.495 143.112C178.604 127.983 184 110.196 184 92C184.035 79.9535 181.697 68.018 177.12 56.875C172.542 45.732 165.815 35.5998 157.321 27.0568C148.828 18.5138 138.735 11.7273 127.619 7.08493C116.503 2.44251 104.581 0.0350529 92.5346 0H92ZM93.5593 95.1186L83.9806 127.419H135.216C135.555 127.407 135.893 127.462 136.211 127.581C136.529 127.7 136.821 127.881 137.069 128.112C137.317 128.344 137.518 128.622 137.658 128.931C137.799 129.241 137.877 129.574 137.889 129.914V130.76L133.433 146.131C133.237 146.858 132.799 147.496 132.192 147.941C131.585 148.387 130.844 148.612 130.092 148.581H51.6804L64.8233 103.806L50.1211 108.261L53.4625 98.0145L68.1647 93.5593L86.6538 30.7409C86.8573 30.0181 87.2968 29.3842 87.9024 28.9402C88.5079 28.4961 89.2446 28.2674 89.9952 28.2906H109.821C110.16 28.2787 110.499 28.3338 110.817 28.4527C111.135 28.5717 111.426 28.7522 111.675 28.9839C111.923 29.2156 112.123 29.494 112.264 29.8031C112.404 30.1123 112.482 30.4461 112.494 30.7855V31.632L96.9007 84.6489L111.603 80.1937L108.484 90.8862L93.5593 95.1186Z" fill="#345D9D"/>
</g>
<defs>
<clipPath id="clip0">
<rect width="184" height="184" fill="white"/>
</clipPath>
</defs>
</svg>
