<svg width="36" height="28" viewBox="0 0 36 28" fill="none" xmlns="http://www.w3.org/2000/svg">
<path d="M24.08 14.64C22.7467 14.0533 21.7067 13.1733 20.96 12C20.2133 10.8267 19.84 9.44 19.84 7.84C19.84 5.54667 20.56 3.68 22 2.24C23.44 0.853335 25.28 0.160001 27.52 0.160001C29.76 0.160001 31.6267 0.880001 33.12 2.32C34.56 3.76 35.28 5.6 35.28 7.84C35.28 8.90667 35.1467 9.97333 34.88 11.04C34.6133 12.1067 34.0267 13.7067 33.12 15.84L28.48 27.36L20.56 27.36L24.08 14.64ZM5.2 14.64C3.86666 14.0533 2.82666 13.1733 2.08 12C1.33333 10.8267 0.959998 9.44 0.959998 7.84C0.959998 5.54667 1.68 3.68 3.12 2.24C4.56 0.853335 6.4 0.160001 8.64 0.160001C10.88 0.160001 12.7467 0.880001 14.24 2.32C15.68 3.76 16.4 5.6 16.4 7.84C16.4 8.90667 16.2667 9.97333 16 11.04C15.7333 12.1067 15.1467 13.7067 14.24 15.84L9.6 27.36H1.68L5.2 14.64Z" fill="white"/>
</svg>
