<svg width="32" height="32" viewBox="0 0 32 32" fill="none" xmlns="http://www.w3.org/2000/svg">
<rect width="32" height="32" rx="2.5" fill="#2F2B53"/>
<path d="M17.4921 24.2725C15.8722 24.2725 14.4037 23.9243 13.0867 23.2279C11.7847 22.5164 10.7553 21.5399 9.99833 20.2985C9.25653 19.042 8.88562 17.6265 8.88562 16.0521C8.88562 14.4776 9.25653 13.0697 9.99833 11.8283C10.7553 10.5718 11.7847 9.59535 13.0867 8.89896C14.4037 8.18743 15.8798 7.83167 17.5148 7.83167C18.8924 7.83167 20.1338 8.07389 21.239 8.55833C22.3592 9.04278 23.2978 9.73917 24.0548 10.6475L21.6931 12.8275C20.6183 11.5861 19.286 10.9654 17.6965 10.9654C16.7124 10.9654 15.8344 11.1849 15.0623 11.624C14.2902 12.0478 13.6847 12.6458 13.2456 13.4179C12.8217 14.19 12.6098 15.0681 12.6098 16.0521C12.6098 17.0361 12.8217 17.9142 13.2456 18.6863C13.6847 19.4583 14.2902 20.0639 15.0623 20.5029C15.8344 20.9268 16.7124 21.1388 17.6965 21.1388C19.286 21.1388 20.6183 20.5105 21.6931 19.254L24.0548 21.434C23.2978 22.3574 22.3592 23.0614 21.239 23.5458C20.1187 24.0303 18.8697 24.2725 17.4921 24.2725Z" fill="white"/>
</svg>
